<svg width="39" height="36" viewBox="0 0 39 36" fill="none" xmlns="http://www.w3.org/2000/svg">
<path d="M5.83333 4.26535C5.31763 4.26535 4.82306 4.47345 4.4584 4.84387C4.09375 5.21429 3.88889 5.71669 3.88889 6.24055V24.0174C3.88889 24.5412 4.09375 25.0436 4.4584 25.414C4.82306 25.7845 5.31763 25.9926 5.83333 25.9926H33.0556C33.5713 25.9926 34.0658 25.7845 34.4305 25.414C34.7951 25.0436 35 24.5412 35 24.0174V6.24055C35 5.71669 34.7951 5.21429 34.4305 4.84387C34.0658 4.47345 33.5713 4.26535 33.0556 4.26535H5.83333ZM5.83333 0.314941H33.0556C34.6026 0.314941 36.0864 0.939245 37.1803 2.05051C38.2743 3.16178 38.8889 4.66898 38.8889 6.24055V24.0174C38.8889 25.5889 38.2743 27.0961 37.1803 28.2074C36.0864 29.3187 34.6026 29.943 33.0556 29.943H5.83333C4.28624 29.943 2.80251 29.3187 1.70854 28.2074C0.614582 27.0961 0 25.5889 0 24.0174L0 6.24055C0 4.66898 0.614582 3.16178 1.70854 2.05051C2.80251 0.939245 4.28624 0.314941 5.83333 0.314941ZM13.6111 31.9182H25.2778C25.7935 31.9182 26.2881 32.1263 26.6527 32.4967C27.0174 32.8671 27.2222 33.3695 27.2222 33.8934C27.2222 34.4172 27.0174 34.9196 26.6527 35.2901C26.2881 35.6605 25.7935 35.8686 25.2778 35.8686H13.6111C13.0954 35.8686 12.6008 35.6605 12.2362 35.2901C11.8715 34.9196 11.6667 34.4172 11.6667 33.8934C11.6667 33.3695 11.8715 32.8671 12.2362 32.4967C12.6008 32.1263 13.0954 31.9182 13.6111 31.9182Z" fill="#5C5759"/>
</svg>
