<svg width="35" height="35" viewBox="0 0 35 35" fill="none" xmlns="http://www.w3.org/2000/svg">
<path d="M28.1213 19H33.5V24.3787L28.1213 19ZM8.75 24.25H26.5V24.5C26.5 25.5966 25.5966 26.5 24.5 26.5H7H6.37868L5.93934 26.9393L1.5 31.3787V10.5C1.5 9.40343 2.40343 8.5 3.5 8.5H3.75V19.25C3.75 22.0034 5.99657 24.25 8.75 24.25Z" fill="#F2F2F2" stroke="#5C5759" stroke-width="3"/>
<path d="M10.5 1.5H31.5C32.6046 1.5 33.5 2.39543 33.5 3.5V17.5C33.5 18.6046 32.6046 19.5 31.5 19.5H10.5C9.39543 19.5 8.5 18.6046 8.5 17.5V3.5C8.5 2.39543 9.39543 1.5 10.5 1.5Z" fill="#F2F2F2" stroke="#5C5759" stroke-width="3"/>
</svg>
