<svg width="35" height="36" viewBox="0 0 35 36" fill="none" xmlns="http://www.w3.org/2000/svg">
<path d="M34.5894 6.40459L28.9896 0.716186C28.8596 0.583964 28.7052 0.479071 28.5352 0.407505C28.3653 0.335939 28.1831 0.299103 27.9991 0.299103C27.8151 0.299103 27.633 0.335939 27.463 0.407505C27.2931 0.479071 27.1387 0.583964 27.0086 0.716186L10.2092 17.7814C10.0792 17.9136 9.97616 18.0704 9.9059 18.2431C9.83564 18.4157 9.79955 18.6007 9.79969 18.7875V24.4759C9.79969 24.8531 9.94719 25.2148 10.2097 25.4815C10.4723 25.7482 10.8284 25.898 11.1996 25.898H16.7995C16.9834 25.8982 17.1655 25.8615 17.3354 25.7901C17.5054 25.7188 17.6598 25.6141 17.7899 25.4821L34.5894 8.41686C34.7196 8.28479 34.8228 8.12795 34.8933 7.95531C34.9637 7.78266 35 7.59761 35 7.41073C35 7.22384 34.9637 7.03879 34.8933 6.86615C34.8228 6.69351 34.7196 6.53666 34.5894 6.40459ZM16.2202 23.0538H12.5996V19.3759L23.7993 7.99912L27.4199 11.677L16.2202 23.0538ZM29.3991 9.66653L25.7784 5.98862L27.9991 3.73282L31.6198 7.41073L29.3991 9.66653ZM33.5989 17.3654V33.0085C33.5989 33.7629 33.304 34.4863 32.7789 35.0197C32.2538 35.5531 31.5416 35.8527 30.799 35.8527H2.79991C2.05733 35.8527 1.34516 35.5531 0.820075 35.0197C0.29499 34.4863 0 33.7629 0 33.0085V4.56652C0 3.81219 0.29499 3.08876 0.820075 2.55537C1.34516 2.02198 2.05733 1.72232 2.79991 1.72232H18.1994C18.5707 1.72232 18.9268 1.87215 19.1893 2.13885C19.4519 2.40554 19.5994 2.76726 19.5994 3.14442C19.5994 3.52159 19.4519 3.8833 19.1893 4.15C18.9268 4.4167 18.5707 4.56652 18.1994 4.56652H2.79991V33.0085H30.799V17.3654C30.799 16.9883 30.9465 16.6266 31.2091 16.3599C31.4716 16.0932 31.8277 15.9433 32.199 15.9433C32.5703 15.9433 32.9264 16.0932 33.1889 16.3599C33.4515 16.6266 33.5989 16.9883 33.5989 17.3654Z" fill="#5C5759"/>
</svg>
