<svg viewBox="0 0 1920 1080" xmlns="http://www.w3.org/2000/svg" xmlns:xlink="http://www.w3.org/1999/xlink"><filter id="a" filterUnits="userSpaceOnUse"><feOffset dx="0" dy="0"/><feGaussianBlur result="blur" stdDeviation="31"/><feFlood flood-color="#38f2b4" flood-opacity=".75"/><feComposite in2="blur" operator="in"/><feComposite in="SourceGraphic"/></filter><linearGradient id="b" gradientTransform="matrix(.99215839 .12498691 -.12498691 .99215839 -119.45 376.13)" gradientUnits="userSpaceOnUse" x1="714.44" x2="790.46" y1="285.02" y2="285.02"><stop offset="0" stop-color="#bbbdbf"/><stop offset="1" stop-color="#fff"/></linearGradient><linearGradient id="c" gradientTransform="matrix(.99215839 .12498691 -.12498691 .99215839 -119.45 376.13)" gradientUnits="userSpaceOnUse" x1="906.3" x2="944.23" y1="338.52" y2="338.52"><stop offset="0" stop-color="#808184"/><stop offset="1" stop-color="#f0f1f1"/></linearGradient><linearGradient id="d" x1="874.25" x2="911.75" xlink:href="#c" y1="345.08" y2="345.08"/><linearGradient id="e" x1="147.3" x2="413.61" xlink:href="#b" y1="660.36" y2="660.36"/><linearGradient id="f" x1="406.15" x2="686.81" xlink:href="#b" y1="393.31" y2="393.31"/><linearGradient id="g" x1="847.57" x2="973" xlink:href="#b" y1="55.54" y2="55.54"/><linearGradient id="h" x1="983" x2="1090.01" xlink:href="#b" y1="14.39" y2="14.39"/><linearGradient id="i" x1="900.16" x2="975.68" xlink:href="#b" y1="101.03" y2="101.03"/><linearGradient id="j" x1="1006.93" x2="1093.81" xlink:href="#b" y1="45.21" y2="45.21"/><linearGradient id="k" gradientTransform="matrix(.99215839 .12498691 -.12498691 .99215839 -119.45 376.13)" gradientUnits="userSpaceOnUse" x1="891.11" x2="997.2" y1="200.45" y2="200.45"><stop offset="0" stop-color="#929497"/><stop offset="1" stop-color="#e5e6e7"/></linearGradient><linearGradient id="l" x1="858.42" x2="932.81" xlink:href="#c" y1="245.38" y2="245.38"/><linearGradient id="m" x1="871.86" x2="960.29" xlink:href="#k" y1="240.94" y2="240.94"/><linearGradient id="n" x1="993.16" x2="1019.25" xlink:href="#k" y1="310.02" y2="310.02"/><linearGradient id="o" x1="951.77" x2="994.53" xlink:href="#k" y1="324.16" y2="324.16"/><linearGradient id="p" x1="748.79" x2="826.49" xlink:href="#b" y1="252.85" y2="252.85"/><linearGradient id="q" x1="762.33" x2="855.36" xlink:href="#b" y1="208.37" y2="208.37"/><linearGradient id="r" x1="706.42" x2="858.11" xlink:href="#b" y1="162.2" y2="162.2"/><linearGradient id="s" x1="830.14" x2="900.69" xlink:href="#c" y1="277.11" y2="277.11"/><linearGradient id="t" x1="200.96" x2="469.12" xlink:href="#b" y1="714.97" y2="714.97"/><linearGradient id="u" x1="474.29" x2="566.41" xlink:href="#b" y1="590.21" y2="590.21"/><linearGradient id="v" x1="530.02" x2="683.96" xlink:href="#b" y1="542.4" y2="542.4"/><linearGradient id="w" x1="549.67" x2="653.6" xlink:href="#b" y1="453.08" y2="453.08"/><linearGradient id="x" x1="653.25" x2="727.5" xlink:href="#b" y1="340.27" y2="340.27"/><linearGradient id="y" x1="772.72" x2="832.75" xlink:href="#c" y1="338.02" y2="338.02"/><linearGradient id="z" x1="804.18" x2="843.88" xlink:href="#c" y1="314.86" y2="314.86"/><linearGradient id="A" x1="759.59" x2="916.84" xlink:href="#b" y1="356.65" y2="356.65"/><linearGradient id="B" x1="618.53" x2="790.97" xlink:href="#b" y1="440.58" y2="440.58"/><path d="m0 0h1922v1085h-1922z" fill="#195d5d"/><path d="m1276.4 582.24-272.6 272.6c-22.78 22.79-59.72 22.79-82.51 0l-272.6-272.6c-22.79-22.79-22.79-59.73 0-82.52l272.6-272.59c22.79-22.79 59.73-22.79 82.51 0l272.6 272.59c22.79 22.79 22.79 59.73 0 82.52" fill="#40c287" opacity=".42"/><g filter="url(#a)"><path d="m1152.2 565.92-164.73 164.73c-13.77 13.77-36.09 13.77-49.86 0l-164.73-164.73c-13.77-13.77-13.77-36.09 0-49.86l164.73-164.73c13.77-13.77 36.09-13.77 49.86 0l164.73 164.73c13.77 13.77 13.77 36.09 0 49.86" fill="#40c287"/></g><path d="m1324.86 517.03s-36.97 13.75-68.58 21.78c-11.89 3.03-23.02 5.24-31.15 5.61 0 0-32.92 51.43-52.57 65.42 0 0-6.84 85.43-78.74 97.54-5.01-2.35-7.96-7.49-7.64-12.84.05-.84.18-1.68.39-2.52l23.67-92.92c37.21-23.95 61.47-69.06 61.47-69.06l89.95-21.67 28.4 5.86s1.28.08 3.59.23c5.54.38 17.02 1.22 31.2 2.58z" fill="#c99789"/><path d="m1418.49 532.88-64.16 6.09s-18.75 15.41-84.91 53.91c-31.54 49.2-57.94 59.21-74.31 59.13-9.21-.04-14.77-10.21-9.91-18.02l51.14-82.19 19.94-13c31.61-8.03 68.58-21.78 68.58-21.78 29.23 2.82 69.9 7.91 93.64 15.86z" fill="#bb877e"/><path d="m1261.66 508.35-89.95 21.67s-24.26 45.12-61.47 69.06c-.66.43-1.34.86-2.01 1.27-25.9 60.81-41.42 84.94-81.06 88.39-7.14.63-12.49-6.4-10.02-13.13l32.27-87.47 61.89-84.65 71.62-11.37 6.24 1.29 72.49 14.95z" fill="#d6a796"/><path d="m1519.25 370.48c-74.89 10.82-177.08 25.06-223.26 29.14l46.3-23.71c16.15-8.28 34.19-12.17 52.33-11.32l124.64 5.89z" fill="#d6a796"/><path d="m2325.58 98.2-22.01 375.53-552.64 66.25s-73.22 97.55-138.58 110.51c-65.35 12.96-87.97 64.86-206.65 119.19-56.18 25.72-88.94 29.49-107.86 26.34-12.34-2.06-20.59-12.84-20.46-24.4 0-.69.05-1.4.12-2.1.25-2.59.94-5.2 2.11-7.74 26.6-57.82 92.92-76.86 147.2-103.13 59.74-28.91 29.28-98.18 7.91-117.65-3.28-2.99-8.96-5.69-16.23-8.13-23.74-7.95-64.41-13.04-93.64-15.86-.66-.06-1.31-.12-1.95-.18-.59-.06-1.17-.12-1.75-.16-2.63-.25-5.16-.47-7.55-.68-.77-.07-1.54-.13-2.29-.2-1.12-.09-2.21-.18-3.26-.27-.35-.03-.69-.06-1.03-.08-.34-.03-.68-.06-1.02-.08-.67-.05-1.32-.11-1.95-.15-.14 0-.27-.02-.41-.03-.89-.07-1.74-.13-2.55-.2-.4-.03-.8-.05-1.19-.09-.9-.07-1.74-.13-2.54-.19-.4-.03-.78-.05-1.15-.08-.16 0-.31-.03-.47-.04-.78-.05-1.48-.1-2.11-.15-2.31-.15-3.59-.23-3.59-.23l-28.4-5.86-72.49-14.95-6.24-1.29-71.62 11.37-29.32 4.66c-54.64 41.69-100.31 32.3-124.69 21.41-8.78-3.93-8.99-16.33-.4-20.67l188.39-95s73.32-7.5 150.15-14.23c.19-.01.37-.03.56-.05 46.18-4.08 148.37-18.32 223.26-29.14 50.6-7.32 88.75-13.07 88.75-13.07l717.58-259.22z" fill="#f1c7af"/><path d="m1301.1 514.97c.81.06 1.67.13 2.55.2-.89-.07-1.74-.13-2.55-.2z" fill="#f1c7af"/><path d="m2310.48 355.95-6.91 117.9-552.64 66.25s-73.22 97.55-138.58 110.5c-65.35 12.97-87.97 64.86-206.65 119.19-56.18 25.72-88.94 29.49-107.86 26.34-12.39-2.07-20.65-12.9-20.45-24.51 0-.69.05-1.4.12-2.1.27-2.56.95-5.12 2.11-7.62 5.79-12.58 13.46-23.32 22.47-32.7-.51.93-24.36 45.25-2.72 46.52 21.87 1.28 152.07-48.38 199.81-102.86 47.75-54.48 126.84-46.67 147.08-66.16 20.24-19.5 94.28-107.44 94.28-107.44l569.95-143.31z" fill="#e1b29b"/><path d="m846.96 566.39 7.8 8.99 93.1-30.16s8.28-19.28-10.66-25.36-83.18.3-83.18.3l-6.98 6.51-104.56 42.88-26.47 11.37-23.72 5.71-136.57 74.57 2.65 8.34-4.28 2.23-14.13-10.09-15.74 14.95-323.64 293.36-261.13 114.93-11.55 96.01 138.97 17.04 201.2-135.41s19.9-8.89 22.6-13.17c2.69-4.28 3.61-11.56 3.61-11.56s55.18-18.22 81.68-25.67c26.5-7.44 59.47-20.76 84.67-26.75 11.43-2.72 19.93-7.88 41.02-24.32 27.95-21.79 95.86-61.83 95.86-61.83l5.88-5.11 4.89 2.77 3.6-1.7 2.91 3.75 50.13-38.65-45.96-50.75-55.89 30.53-74.87 24.75 76.05-119.76 5.95-5.72 4.87-.75 25.33 26.26 19.75 37.59 35.86-18.81-32.89-51.25 45.06-5.65 14.61 23.4 50.48 36.84-9.02 83.86s10.65 1.03 18.66-11.2 20.09-86.16 20.09-86.16l-6.06-8.15-70.23-75.67-70.53 2.51 67.7-24.12 120.85 89.43-.92 9.74-7.62-.65s13.07 86.95 17.73 91.54 17.85 2.56 25.02-5.47 3.23-96.59 3.23-96.59l-.37-11.75-10.07-12.97-80.92-69.01-45.56-31.91 72.3-33.7 69.42-30.37z" fill="#03373d"/><path d="m584.91 828.22 10.91-5.12 35.57 64.4-10.81 8.39z" fill="#011819"/><path d="m222.61 952.36s.11 52.79 70.11 93.58c-.93 7.42-22.06 16.2-22.06 16.2s-49.64-12.49-69.43-98.95c20.29-10.44 21.38-10.83 21.38-10.83z" fill="#011819"/><path d="m723.35 697.23 7.1 5.18 26.92-36.01-7.4-4.86z" fill="#011819"/><path d="m837.99 530.97s-.74 19.27 8.56 35.26l-7.19 3.38s-10.96-13.08-10.48-36.55l9.1-2.1z" fill="#011819"/><path d="m598.24 699.65 24.88 32.79 32.89 51.25-36.32 18.75-19.29-37.53-32.47-33.19z" fill="#022123"/><path d="m555.26 775.42 44.76 2.99c1.61.11 3.15-.63 4.07-1.95l27.09-38.8c2.21-3.17-.24-7.49-4.1-7.21l-53.23 3.85c-1.51.11-2.87.96-3.64 2.27l-18.62 31.96c-1.72 2.94.26 6.67 3.66 6.89z" fill="url(#b)"/><path d="m555.01 760.11 58.69 2.58 24.57-35.12-68.9 7.31z" fill="#011819" opacity=".3"/><path d="m565.32 746.4 23.59-32.36 5.74-3.44 32.28-20.65-41.46-41.25-29.75 12.5 2.72 8.7-32.87 32.7-4.38 23.7z" fill="#03373d"/><path d="m757.15 783.54-26.04 92.12s19.13 4.43 28.76-24.75c7.42-22.49 16.89-53.23 20.84-66.14.91-2.98-1.4-5.97-4.51-5.84l-13.91.56c-2.41.1-4.48 1.73-5.14 4.05z" fill="url(#c)"/><path d="m719.66 786.1 21.41 7.38c3.68 1.27 5.72 5.18 4.66 8.93l-18.54 65.51c-1.31 4.63-6.67 6.81-10.78 4.32-7.05-4.27-15.46-13.71-12.87-34.21 2.65-20.99 5.05-37 6.49-46.14.71-4.51 5.32-7.27 9.63-5.79z" fill="url(#d)"/><path d="m-53.3 1059.07 275.68-105.42s-14.05 19.09-2.9 60.9c1.58 5.94-.88 12.21-6.07 15.52-48.94 31.22-269.2 155-269.2 155l-12.92-1.86 15.4-124.14z" fill="#78dbff"/><path d="m-56.68 1056.54 275.91-105.68s-14.06 19.13-2.91 61.02c1.58 5.95-.89 12.24-6.08 15.55-48.98 31.29-269.42 155.35-269.42 155.35l-12.93-1.86 15.43-124.39z" fill="url(#e)"/><path d="m221.06 957.28s-8.49 19.5 6.72 36.96 24.41 27.3 35.94 26.01 16.51-16.89 34.69-28.55c18.18-11.65 30.9-18.74 28.49-30.93s-6.46-35.33 4.03-52.29c10.49-16.97 17.53-32.31 45.45-60.56 26.77-27.09 44.16-45.7 83.71-48.22 3.29-.21 6.26-2.01 7.95-4.79 16.9-27.83 56.09-84.6 68.6-102.63 2.3-3.31 2-7.75-.72-10.75l-22.66-25.06-292.21 300.81z" fill="#78dbff"/><path d="m217.86 956.24s-8.49 19.72 6.62 37.32c15.1 17.61 24.25 27.53 35.73 26.21 11.48-1.33 16.47-17.1 34.59-28.9 18.12-11.81 30.8-18.99 28.42-31.3s-6.36-35.68 4.11-52.83c10.48-17.16 17.51-32.67 45.36-61.27 26.7-27.42 44.04-46.24 83.43-48.87 3.28-.22 6.23-2.04 7.92-4.86 16.87-28.15 56-85.56 68.49-103.8 2.29-3.35 2.01-7.83-.69-10.86l-22.51-25.27-291.46 304.42z" fill="url(#f)"/><path d="m843.48 536.76c-4.47-16.25-10.02-20.09-10.02-20.09l-123.22 40.31c-.14.02-.26.05-.33.11-.36.28-.36 14.71 10.82 21.96 8.37-3.71 12.65-5.51 14.5-6.27 12.32 5.17 28.31 8.72 46.14 4.9 40.43-8.67 66.58-24.68 62.11-40.93z" fill="#78dbff"/><path d="m712.12 556.34s29.76 27.77 68.45 19.48 63.72-23.62 59.44-39.17-9.59-19.22-9.59-19.22l-118.3 38.92z" fill="url(#g)"/><path d="m850.33 515.86 14.17 27.8s64.23-3.44 100.53-28.57c-1.06-2.1-2.01-3.99-2.85-5.68-3.72-7.47-11.93-11.58-20.14-10.1l-91.7 16.55z" fill="#78dbff"/><path d="m853.87 514.6 13.33 26.16s60.46-3.24 94.61-26.89c-1-1.98-1.89-3.76-2.68-5.35-3.5-7.03-11.23-10.9-18.96-9.5l-86.31 15.58z" fill="url(#h)"/><path d="m768.79 620.01-10.11-22.7c-2.35-5.28.85-11.37 6.53-12.43 9.03-1.69 21.64-4.44 30.57-7.97 8.9-3.53 19.26-7.56 26.42-10.35 5.45-2.12 11.53.69 13.54 6.18 2.28 6.23 3.86 14.65.51 22.62-9.67 7.79-43.45 28.16-67.47 24.65z" fill="#78dbff"/><path d="m770.84 619.47-9.67-21.73c-2.25-5.05.81-10.88 6.25-11.89 8.64-1.61 20.71-4.24 29.25-7.63 8.52-3.37 18.43-7.24 25.28-9.9 5.21-2.03 11.04.66 12.96 5.91 2.18 5.96 3.7 14.02.49 21.65-9.25 7.46-41.58 26.94-64.56 23.59z" fill="url(#i)"/><path d="m867.81 577.82c2.53-5.45 7.19-16.5 8.88-27.1.2-1.28 1.16-2.31 2.41-2.64 27.92-7.28 67.45-21.69 79.98-26.34 2.07-.77 4.27.77 4.25 2.98-.12 9.71-4.49 32.75-41.49 43.82-31.41 9.4-45.62 11.94-51.66 12.58-1.81.19-3.13-1.66-2.37-3.31z" fill="#78dbff"/><path d="m870.11 578.16c2.48-5.35 7.05-16.2 8.72-26.61.2-1.26 1.14-2.27 2.37-2.59 27.41-7.15 66.23-21.3 78.53-25.86 2.03-.75 4.2.76 4.17 2.93-.11 9.53-4.41 32.16-40.74 43.03-30.84 9.23-44.79 11.72-50.72 12.36-1.78.19-3.08-1.63-2.33-3.25z" fill="url(#j)"/><path d="m843.69 724.11s-92.97-74.77-100.93-80.09c5.14 23.91 12.08 52.59 26.82 63.08 10.98 7.81 34.22 22.89 45.36 30.07 6.76 4.36 15.69 3.58 21.45-2.04 2.58-2.52 5.12-6.06 7.29-11.03z" fill="#78dbff"/><path d="m841.97 722.81s-89.55-72.02-97.22-77.14c4.95 23.03 11.64 50.66 25.84 60.76 10.58 7.53 32.96 22.05 43.69 28.97 6.52 4.2 15.12 3.45 20.66-1.96 2.49-2.43 4.94-5.84 7.02-10.62z" fill="url(#k)"/><path d="m703.9 692.91-1.75 25.86c-.36 5.32 1.88 10.49 6.02 13.86l35.6 29.01c4.48 3.65 10.88 3.71 15.42.15l12.21-9.57-67.51-59.31z" fill="#78dbff"/><path d="m705.65 694.56-1.75 25.86c-.36 5.32 1.88 10.49 6.02 13.86l35.6 29.01c4.48 3.65 10.88 3.71 15.42.15l12.21-9.57-67.51-59.31z" fill="url(#l)"/><path d="m721.05 708.1-11.15 13.47c-1.34 1.62-1 4.03.74 5.21l49.8 33.95c1.29.88 2.99.82 4.21-.15l5.16-4.07c1.75-1.38 1.82-4 .14-5.47l-48.9-42.95z" fill="#011819" opacity=".3"/><path d="m715.91 722.64s-9.64-3.13 9.3-23.99c2.62 1.37 6.29 3.21 6.29 3.21z" fill="#78dbff"/><path d="m714.08 721.11 23.43-26.76c3.11-3.55 8.48-4.01 12.14-1.03l49.69 40.4c4.43 3.61 5.44 9.98 2.3 14.76-3.88 5.9-10.44 13.24-20.6 17.36-46.44-27.58-66.97-44.73-66.97-44.73z" fill="#78dbff"/><path d="m715.63 722.84 22.66-25.88c3.01-3.44 8.2-3.88 11.74-.99l48.05 39.07c4.29 3.49 5.26 9.66 2.22 14.27-3.76 5.71-10.09 12.81-19.92 16.79-44.91-26.67-64.76-43.26-64.76-43.26z" fill="url(#m)"/><path d="m830.9 765.03-4.18 96.51s20.17-.02 22.88-30.91c2.08-23.81 4.26-56.19 5.15-69.78.21-3.14-2.81-5.55-5.89-4.71l-13.77 3.73c-2.38.65-4.07 2.73-4.17 5.16z" fill="#78dbff"/><path d="m832.46 766.09-4.29 95.63s19.64-.07 22.34-30.68c2.08-23.59 4.27-55.68 5.17-69.15.21-3.11-2.72-5.49-5.73-4.66l-13.41 3.73c-2.32.65-3.97 2.71-4.08 5.12z" fill="url(#n)"/><path d="m797.53 775.66 22.79 2.32c3.91.4 6.83 3.78 6.66 7.71l-3.1 68.78c-.22 4.86-4.99 8.24-9.62 6.74-7.92-2.57-18.39-9.93-20.58-30.7-2.24-21.28-3.59-37.6-4.28-46.93-.34-4.6 3.55-8.39 8.14-7.92z" fill="#78dbff"/><path d="m796.55 777.16 22.53 2.29c3.87.39 6.76 3.74 6.58 7.62l-3.07 68.01c-.22 4.8-4.93 8.15-9.51 6.67-7.83-2.54-18.19-9.82-20.35-30.36-2.22-21.04-3.55-37.18-4.23-46.4-.34-4.55 3.51-8.3 8.05-7.83z" fill="url(#o)"/><path d="m585.85 733.48s-3.71 20.73 1.89 19.96c5.61-.77 11.58-19.07 11.88-21.44-11.48.7-13.78 1.48-13.78 1.48z" fill="#001314"/><path d="m587.74 753.44s9.53-5.82 8.92-39.59c65.07-12.36 76.44-16.47 76.44-16.47s-5.12 38.85-15.79 48.36-69.58 7.7-69.58 7.7z" fill="url(#p)"/><path d="m596.67 713.86s-.33 10.71-.9 19.12c71.13-8.98 72.03-9.16 72.03-9.16s4.74-16.76 4.9-23.46c-26.24 4.01-76.03 13.5-76.03 13.5z" fill="#011819" opacity=".3"/><path d="m601.69 706.33s.82 11.02 3.89 10.37c6.35-.89 6.22-18.45 6.22-18.45l-10.12 8.08z" fill="#001314"/><path d="m605.99 716.88 3.08-16.4 10.76-8.44-6.77-11.22 94.99-29.84-9.98 48.32c-.76 3.68-3.78 6.48-7.51 6.95l-84.58 10.64z" fill="url(#q)"/><path d="m708.82 647.29-4.67 23.2-68.38 42.86-29.78 3.53 3.67-20.66z" fill="#011819" opacity=".2"/><path d="m714.51 650.67c-.66-10.44-4.88-58.76-27.86-82.91-1.17-1.23-3.04-1.43-4.46-.5-46.38 30.45-104.33 64.05-121.27 73.78-2.23 1.28-2.37 4.43-.27 5.91 10.23 7.19 35.71 24.71 55.17 48.3l-7.71 5.85s12.79 13.41 20.23 8.47c7.45-4.94 79.41-52.3 84.61-55.77 1.04-.69 1.63-1.88 1.55-3.13z" fill="#78dbff"/><path d="m559.04 642.14s43.77 28.38 66.93 64.55c72.78-47.88 84.89-56.06 84.89-56.06s-2.14-58.24-28.77-83.3c-52.9 34.91-123.05 74.81-123.05 74.81z" fill="url(#r)"/><path d="m737.09 767.3c-3.25-6.23-24.28-25.4-33.74-33.85-2.65-2.37-6.61-2.47-9.39-.26l-14.62 11.66c-.3-.51-.84-1.44-1.86-3.19-9.13 7.72-9.54 12.64-9.4 14.16.06.75.36 1.49.92 2.09 8.14 8.63 32.05 22.17 37.78 25.36.8.45 1.75.56 2.63.32 6.24-1.73 31.36-9.21 27.66-16.29z" fill="#78dbff"/><path d="m670.62 754.37 24.58-19.6c2.77-2.21 6.74-2.11 9.39.26 9.46 8.46 30.48 27.63 33.74 33.85 3.7 7.08-21.42 14.56-27.66 16.29-.88.25-1.83.13-2.63-.32-5.74-3.19-29.64-16.73-37.78-25.36-1.4-1.48-1.22-3.85.38-5.12z" fill="url(#s)"/><path d="m690.19 775.09-11.52-8.37s16.92-14.09 37.82-9.02c20.91 5.07 22.3 12.3 22.3 12.3s-.47 4.52-3.29 6.8-22.31 17.32-22.31 17.32z" fill="#011819" opacity=".3"/><path d="m-20.99 1184.33 247.93-125.6s20.08 14.77 25.31 13.58 11.18-9.91 11.18-9.91l.88 2.19s2.1 6.58-32.96 24.56c-35.06 17.99-148.32 111.04-148.32 111.04l-104.01-15.87z" fill="#78dbff"/><path d="m-19.01 1186.89 247.93-125.6s20.08 14.77 25.31 13.58 11.18-9.91 11.18-9.91l.88 2.19s2.1 6.58-32.96 24.56c-35.06 17.99-148.32 111.04-148.32 111.04l-104.01-15.87z" fill="url(#t)"/><path d="m274.18 1030.8c-.69.84-.57 2.08.27 2.77 4.53 3.71 18.41 14.27 27.09 12.09 8.29-2.08 45.05-21.09 60.16-29 1.77-.93 1.19-3.59-.8-3.7-11.42-.61-33.56-2.6-46.97-8.97-.42-.2-.89-.25-1.34-.14-19 4.93-34.14 21.78-38.42 26.95z" fill="#78dbff"/><path d="m276.12 1031.01s18.29 14.31 28.72 12.16 66.05-27.48 66.05-27.48-36.38-.89-54.96-9.23c-22.74 4.53-39.81 24.55-39.81 24.55z" fill="url(#u)"/><path d="m332.15 999.54c-1.96.26-2.7 2.73-1.18 4 6.02 5.07 18.6 13.14 35.65 10.77 24.39-3.4 105.68-22.87 129.08-48.92l-2.95-1.33s-12.19 15-27.29 15.01c-15.1.02-22.49-5.95-35.97-5.49-12.22.42-75.94 23.13-97.35 25.95z" fill="#78dbff"/><path d="m337.66 1001.46c-1.89.25-2.6 2.63-1.14 3.86 5.8 4.89 17.92 12.67 34.36 10.38 23.51-3.28 101.86-22.05 124.42-47.15l-2.84-1.28s-11.75 14.46-26.3 14.47c-14.55.02-21.68-5.73-34.67-5.29-11.78.4-73.2 22.29-93.83 25.02z" fill="url(#v)"/><path d="m364.77 956.26s5.31 17.82 22.33 15.79 45.37-22.79 45.37-22.79-16.18-45.83 21.67-82.08c20.55-18.85 28.3-25.48 30.95-27.65.68-.56.8-1.55.27-2.26l-6.22-5.57s-51.82 27.23-85.4 63.32-28.96 61.23-28.96 61.23z" fill="#78dbff"/><path d="m362.53 955.52s5.16 17.74 21.81 15.68c16.66-2.06 44.44-22.81 44.44-22.81s-15.73-45.63 21.39-81.84c20.33-19 27.89-25.56 30.41-27.67.64-.53.77-1.46.31-2.16l-2.86-4.31s-54.08 25.99-87.03 62.02c-32.95 36.04-28.48 61.08-28.48 61.08z" fill="url(#w)"/><path d="m491.37 857.16 18.7-28.3-28.29-25.56s20.54-39.71 40.67-62.28c5.23-5.86 14.06-7.52 21.37-3.96 7.48 3.64 25.81 6.88 25.81 6.88l-75.56 115.44-2.7-2.21z" fill="#78dbff"/><path d="m493.48 858.38 17.62-28.04-26.18-25.01s19.42-39.3 38.34-61.7c4.91-5.82 13.16-7.52 19.94-4.06 6.95 3.54 24 6.6 24 6.6l-71.22 114.36-2.5-2.16z" fill="url(#x)"/><path d="m606.49 796.01 28.04-16.02 27.23 57.63s-6.38 13.98-18.02 4.97-37.25-46.57-37.25-46.57z" fill="url(#y)"/><path d="m644.2 789.98-4.05-9.44 10.56-28.85 23.58 67.37c1.34 3.84.13 8.1-3.03 10.66-3.48 2.82-8.7 1.57-10.52-2.53l-16.55-37.22z" fill="url(#z)"/><circle cx="541.11" cy="706.32" fill="#fdfdfd" opacity=".68" r="8.86" transform="matrix(.50030227 -.86585082 .86585082 .50030227 -341.18 821.47)"/><circle cx="720.4" cy="603.09" fill="#fdfdfd" opacity=".68" r="7.94" transform="matrix(.0298407 -.99955467 .99955467 .0298407 96.13 1305.21)"/><circle cx="722.49" cy="669.56" fill="#fdfdfd" opacity=".68" r="7.94" transform="matrix(.12498691 -.99215839 .99215839 .12498691 -32.1 1302.73)"/><circle cx="685.53" cy="717.23" fill="#fdfdfd" opacity=".68" r="6.24" transform="matrix(.84404725 -.53626881 .53626881 .84404725 -277.7 479.43)"/><circle cx="624.93" cy="767" fill="#fdfdfd" opacity=".68" r="7.94"/><circle cx="814.93" cy="746.1" fill="#fdfdfd" opacity=".68" r="5.08"/><circle cx="852.82" cy="553.5" fill="#fdfdfd" opacity=".68" r="7.94" transform="matrix(.35151488 -.93618229 .93618229 .35151488 34.84 1157.3)"/><path d="m589.74 811.84c-.17.12-.31.25-.44.41-.91 1.12-4.13 5.95-.04 14.15 4.2 8.42 29.07 49.68 34.41 58.52.58.96.37 2.21-.49 2.93l-11.43 9.56c-.76.63-1.08 1.71-.66 2.6.81 1.69 4.24 2.74 17.4-5.49 13.66-8.54 70.58-45.67 105.51-68.5 15.48-10.12 19.96-30.79 10.06-46.41-8.93-14.09-26.06-20.59-42.1-16.03-30.69 8.72-80.27 25.23-112.23 48.25z" fill="#78dbff"/><path d="m592.61 814.86c-.16.12-.31.25-.44.41-.91 1.12-4.1 5.9-.04 14.03 4.17 8.35 28.83 49.27 34.13 58.04.58.96.37 2.19-.49 2.91l-11.33 9.48c-.75.63-1.07 1.69-.65 2.58.8 1.68 4.21 2.72 17.26-5.44 13.54-8.46 70-45.3 104.64-67.94 15.35-10.03 19.79-30.54 9.98-46.03-8.85-13.97-25.84-20.42-41.75-15.9-30.43 8.65-79.61 25.03-111.31 47.86z" fill="url(#A)"/><path d="m580.8 832.61c0-.13-.47-3.69-.58-3.75-.92-.51-107.06 33.51-107.06 33.51s-32.35 27.79-13.48 70.58c18.86 42.79 49.39 34.55 49.39 34.55s18.34-4.39 36.64-32.34c36.28-17.08 59.81-24.44 67.17-28.13 2.11-1.06 2.23-4.01.22-5.25-10.18-6.28-34.49-25.64-32.28-69.18z" fill="#78dbff"/><path d="m588.91 714.04 5.74-3.44-36.21-40.7-4.36 1.87z" fill="#011819"/><path d="m608.93 700.46s11.09 9.44 14.04 8.15c2.94-1.29-7.13-13.38-7.13-13.38l-6.9 5.22z" fill="#001314"/><path d="m735.39 572.84s-16.22-7.02-22.65-13.45c-.38-.38-1.04-.1-1.03.44.08 5.07.9 9.85 10.31 18.63 5.98-2.61 13.37-5.63 13.37-5.63z" fill="#001314"/><path d="m804.72 757.54-.91 9.73 37.97-15.3.02-7.63z"/><path d="m727.08 576.66 16.42 35.74 9.2-3.91-17.67-35.11z" fill="#011819"/><path d="m670 752.97 9.45-8.19-1.35-2.14s-6.79 4.6-8.1 10.34z" fill="#011819"/><path d="m611.19 904.84s-9.82 5.39-64.74 31.25c-9.5 23.33-33.75 38.34-59.93 35.04-31.25-3.94-53.39-32.46-49.46-63.7 3.45-27.42 25.84-47.83 52.38-49.75.05-.02.1-.04.14-.06l2.63 1.34 82.76-25.95c.82.21 1.1.44 1.1.44-2.95 56.44 35.12 71.4 35.12 71.4z" fill="url(#B)"/><path d="m716 720.65s-4.78-1.2 10.63-21.31c.79.47 4.49 2.28 4.49 2.28z" fill="#011819"/><g fill="#fff"><path d="m97.55 138.11h-15.77l17.76-53.82h19.97l17.76 53.82h-15.77l-3.1-10.3h-17.76l-3.1 10.3zm6.41-21.24h11.14l-5.36-17.76h-.42z"/><path d="m157.78 84.29v53.82h-14.61v-53.82z"/><path d="m180.91 138.11v-53.82h23.23c3.99 0 7.49.79 10.48 2.37 3 1.58 5.33 3.79 6.99 6.65s2.5 6.19 2.5 10.01-.85 7.19-2.56 10.01-4.1 4.99-7.17 6.52c-3.08 1.52-6.66 2.29-10.76 2.29h-8.09v15.98h-14.61zm14.61-27.33h5.15c2.56 0 4.56-.67 6.02-2.01s2.18-3.16 2.18-5.45-.73-4.12-2.18-5.41c-1.45-1.3-3.46-1.94-6.02-1.94h-5.15v14.82z"/><path d="m230.42 138.11v-40.36h14.09v7.67h.42c.75-2.84 1.93-4.91 3.52-6.23 1.59-1.31 3.47-1.97 5.62-1.97 1.05 0 2.08.13 3.08.39s1.9.62 2.71 1.08l-4.2 11.88c-.6-.28-1.22-.53-1.87-.74s-1.36-.32-2.13-.32c-1.8 0-3.37.69-4.7 2.06s-2.01 3.21-2.02 5.5v21.02h-14.51z"/><path d="m282.14 138.84c-6.46 0-11.55-1.83-15.25-5.51-3.71-3.67-5.56-8.77-5.56-15.31 0-4.17.84-7.81 2.52-10.93s4.05-5.54 7.12-7.28c3.07-1.73 6.68-2.6 10.85-2.6s7.6.83 10.6 2.5 5.33 4.04 6.99 7.13 2.48 6.78 2.48 11.08v3.36h-26.28v.63c0 1.94.6 3.55 1.8 4.82s2.88 1.9 5.03 1.9c1.49 0 2.79-.31 3.9-.93s1.88-1.5 2.3-2.64h13.24c-.68 4.2-2.75 7.55-6.19 10.04s-7.97 3.73-13.57 3.73zm-6.51-25.54h12.93c-.04-1.73-.66-3.15-1.88-4.24s-2.73-1.64-4.53-1.64-3.29.54-4.56 1.63-1.92 2.51-1.96 4.26z"/><path d="m327.98 138.84c-4.38 0-8.13-.87-11.25-2.61s-5.51-4.18-7.17-7.31c-1.67-3.13-2.5-6.76-2.5-10.89s.83-7.77 2.5-10.89c1.66-3.13 4.06-5.56 7.17-7.31s6.87-2.61 11.25-2.61c3.96 0 7.39.71 10.29 2.14s5.15 3.44 6.74 6.04 2.4 5.65 2.42 9.16h-13.46c-.19-2.12-.8-3.74-1.83-4.85-1.02-1.11-2.34-1.67-3.96-1.67-1.91 0-3.44.82-4.58 2.46-1.15 1.64-1.72 4.11-1.72 7.42s.57 5.79 1.72 7.42c1.15 1.64 2.68 2.46 4.58 2.46 1.59 0 2.92-.56 3.97-1.67s1.66-2.73 1.81-4.85h13.46c-.07 5.34-1.84 9.6-5.29 12.78-3.46 3.18-8.18 4.77-14.15 4.77z"/><path d="m354.15 138.11v-40.36h14.51v40.36zm7.26-44.57c-1.96 0-3.64-.65-5.04-1.94-1.4-1.3-2.1-2.86-2.1-4.68s.7-3.38 2.1-4.68 3.08-1.94 5.04-1.94 3.67.65 5.06 1.94 2.09 2.86 2.09 4.68-.7 3.38-2.09 4.68-3.08 1.94-5.06 1.94z"/><path d="m413.65 110.88h-13.35c-.11-1.24-.68-2.22-1.73-2.93s-2.3-1.06-3.73-1.06c-1.24 0-2.31.23-3.21.68-.89.46-1.33 1.1-1.31 1.94-.02.6.24 1.15.78 1.66.53.51 1.57.9 3.11 1.18l8.2 1.47c8.15 1.47 12.25 5.12 12.3 10.93-.02 2.87-.87 5.37-2.56 7.48s-3.99 3.74-6.91 4.89-6.24 1.72-9.97 1.72c-6.17 0-10.99-1.26-14.47-3.78s-5.42-5.85-5.82-9.99h14.4c.19 1.28.83 2.26 1.91 2.96 1.08.69 2.44 1.04 4.09 1.04 1.33 0 2.43-.23 3.3-.68.87-.46 1.31-1.1 1.33-1.94-.05-1.4-1.59-2.38-4.62-2.94l-7.15-1.26c-8.25-1.45-12.35-5.41-12.3-11.88-.02-4.2 1.64-7.45 4.97-9.72 3.33-2.28 7.87-3.42 13.64-3.42s10.44 1.21 13.81 3.63 5.15 5.76 5.32 10.04z"/><path d="m421.01 138.11v-40.36h14.51v40.36zm7.25-44.57c-1.96 0-3.64-.65-5.04-1.94-1.4-1.3-2.1-2.86-2.1-4.68s.7-3.38 2.1-4.68 3.08-1.94 5.04-1.94 3.67.65 5.06 1.94 2.09 2.86 2.09 4.68-.7 3.38-2.09 4.68-3.08 1.94-5.06 1.94z"/><path d="m463.06 138.84c-4.38 0-8.13-.87-11.25-2.61s-5.51-4.18-7.17-7.31c-1.67-3.13-2.5-6.76-2.5-10.89s.83-7.77 2.5-10.89c1.66-3.13 4.06-5.56 7.17-7.31s6.87-2.61 11.25-2.61 8.13.87 11.25 2.61 5.51 4.18 7.17 7.31 2.5 6.76 2.5 10.89-.83 7.77-2.5 10.89c-1.66 3.13-4.06 5.56-7.17 7.31s-6.87 2.61-11.25 2.61zm.11-10.72c1.84 0 3.3-.91 4.38-2.72s1.62-4.31 1.62-7.48-.54-5.66-1.62-7.48c-1.08-1.81-2.54-2.72-4.38-2.72-1.95 0-3.46.91-4.56 2.72-1.09 1.81-1.64 4.31-1.64 7.48s.55 5.66 1.64 7.48c1.09 1.81 2.61 2.72 4.56 2.72z"/><path d="m505.11 115.4v22.7h-14.51v-40.36h13.77v7.67h.42c.88-2.56 2.42-4.56 4.64-6.02 2.22-1.45 4.8-2.18 7.76-2.18s5.34.65 7.45 1.96 3.75 3.1 4.91 5.37c1.17 2.28 1.74 4.88 1.72 7.8v25.75h-14.51v-22.7c.02-2-.49-3.56-1.51-4.7s-2.45-1.71-4.27-1.71-3.23.57-4.28 1.71-1.59 2.71-1.6 4.7z"/><path d="m553.26 130.75-.21 2.94c-.17 2.52-.59 4.94-1.25 7.25s-1.35 4.36-2.08 6.15-1.3 3.17-1.72 4.15h-8.93c.28-.98.68-2.4 1.2-4.24s.99-3.93 1.42-6.25.64-4.67.64-7.06v-2.94z"/><path d="m83.57 226.91v-53.82h38.79v11.77h-24.18v9.25h22.18v11.77h-22.18v9.25h24.07v11.77h-38.68z"/><path d="m143.06 186.54 5.89 12.51 6.2-12.51h14.4l-10.83 20.18 11.35 20.18h-14.3l-6.83-12.82-6.62 12.82h-14.51l11.46-20.18-10.72-20.18z"/><path d="m175.44 242.04v-55.5h14.4v7.04h.32c.79-2.05 2.13-3.82 4.02-5.32s4.34-2.25 7.33-2.25c2.66 0 5.2.71 7.61 2.13s4.37 3.65 5.89 6.7c1.51 3.05 2.27 7.01 2.27 11.88s-.72 8.52-2.17 11.59-3.37 5.35-5.78 6.86-5.05 2.26-7.92 2.26-5.21-.68-7.12-2.04-3.29-3.06-4.13-5.11h-.21v21.76zm14.19-35.32c0 2.94.57 5.27 1.71 6.99s2.71 2.58 4.7 2.58 3.55-.84 4.65-2.54c1.1-1.69 1.66-4.03 1.66-7.03s-.55-5.34-1.66-7.03c-1.1-1.69-2.65-2.54-4.65-2.54s-3.57.85-4.7 2.54c-1.14 1.69-1.71 4.03-1.71 7.03z"/><path d="m243.46 227.64c-6.46 0-11.55-1.83-15.25-5.51-3.71-3.67-5.56-8.77-5.56-15.31 0-4.17.84-7.81 2.52-10.93s4.05-5.54 7.12-7.28c3.07-1.73 6.68-2.6 10.85-2.6s7.6.83 10.6 2.5 5.33 4.04 6.99 7.13 2.48 6.78 2.48 11.08v3.36h-26.28v.63c0 1.94.6 3.55 1.8 4.82s2.88 1.9 5.03 1.9c1.49 0 2.79-.31 3.9-.93s1.88-1.5 2.3-2.64h13.24c-.68 4.2-2.75 7.55-6.19 10.04s-7.97 3.73-13.57 3.73zm-6.52-25.54h12.93c-.04-1.73-.66-3.15-1.88-4.24s-2.73-1.64-4.53-1.64-3.29.54-4.56 1.63-1.92 2.51-1.96 4.26z"/><path d="m269.84 226.91v-40.36h14.09v7.67h.42c.74-2.84 1.91-4.91 3.51-6.23 1.6-1.31 3.48-1.97 5.64-1.97 1.21 0 2.44.18 3.68.55v12.38c-.72-.25-1.6-.43-2.65-.55s-1.95-.18-2.71-.18c-2.14 0-3.92.7-5.33 2.1-1.42 1.4-2.13 3.26-2.13 5.57v21.02h-14.51z"/><path d="m329.23 186.54v10.51h-6.94v16.87c0 1.68.91 2.52 2.73 2.52.44 0 .95-.05 1.54-.16.59-.1 1.02-.19 1.3-.26l2.1 10.2c-.65.19-1.57.43-2.77.71s-2.62.46-4.27.55c-5.01.28-8.8-.63-11.37-2.72s-3.82-5.25-3.77-9.47v-18.24h-5.15v-10.51h5.15v-9.67h14.51v9.67z"/><path d="m371.81 226.91h-20.71v-53.82h20.5c5.54 0 10.32 1.07 14.36 3.22s7.16 5.23 9.36 9.25 3.3 8.83 3.3 14.44-1.1 10.42-3.29 14.44-5.29 7.1-9.3 9.25-8.75 3.22-14.22 3.22zm-6.1-12.41h5.57c2.66 0 4.94-.43 6.82-1.29s3.32-2.34 4.31-4.44 1.49-5.03 1.49-8.78-.5-6.67-1.51-8.78c-1.01-2.1-2.48-3.58-4.41-4.44-1.94-.86-4.31-1.29-7.11-1.29h-5.15v29.01z"/><path d="m425.63 227.64c-6.46 0-11.55-1.83-15.25-5.51-3.71-3.67-5.56-8.77-5.56-15.31 0-4.17.84-7.81 2.52-10.93s4.05-5.54 7.12-7.28c3.07-1.73 6.68-2.6 10.85-2.6s7.6.83 10.6 2.5 5.33 4.04 6.99 7.13 2.48 6.78 2.48 11.08v3.36h-26.28v.63c0 1.94.6 3.55 1.8 4.82s2.88 1.9 5.03 1.9c1.49 0 2.79-.31 3.9-.93s1.88-1.5 2.3-2.64h13.24c-.68 4.2-2.75 7.55-6.19 10.04s-7.97 3.73-13.57 3.73zm-6.51-25.54h12.93c-.04-1.73-.66-3.15-1.88-4.24s-2.73-1.64-4.53-1.64-3.29.54-4.56 1.63-1.92 2.51-1.96 4.26z"/><path d="m471.46 227.64c-4.38 0-8.13-.87-11.25-2.61s-5.51-4.18-7.17-7.31c-1.67-3.13-2.5-6.76-2.5-10.89s.83-7.77 2.5-10.89c1.66-3.13 4.06-5.56 7.17-7.31s6.87-2.61 11.25-2.61c3.96 0 7.39.71 10.29 2.14s5.15 3.44 6.74 6.04 2.4 5.65 2.42 9.16h-13.46c-.19-2.12-.8-3.74-1.83-4.85-1.02-1.11-2.34-1.67-3.96-1.67-1.91 0-3.44.82-4.58 2.46-1.15 1.64-1.72 4.11-1.72 7.42s.57 5.79 1.72 7.42c1.15 1.64 2.68 2.46 4.58 2.46 1.59 0 2.92-.56 3.97-1.67s1.66-2.73 1.81-4.85h13.46c-.07 5.34-1.84 9.6-5.29 12.78-3.46 3.18-8.18 4.77-14.15 4.77z"/><path d="m497.64 226.91v-40.36h14.51v40.36zm7.25-44.57c-1.96 0-3.64-.65-5.04-1.94-1.4-1.3-2.1-2.86-2.1-4.68s.7-3.38 2.1-4.68 3.08-1.94 5.04-1.94 3.67.65 5.06 1.94 2.09 2.86 2.09 4.68-.7 3.38-2.09 4.68-3.08 1.94-5.06 1.94z"/><path d="m557.14 199.68h-13.35c-.11-1.24-.68-2.22-1.73-2.93s-2.3-1.06-3.73-1.06c-1.24 0-2.31.23-3.21.68-.89.46-1.33 1.1-1.31 1.94-.02.6.24 1.15.78 1.66.53.51 1.57.9 3.11 1.18l8.2 1.47c8.15 1.47 12.25 5.12 12.3 10.93-.02 2.87-.87 5.37-2.56 7.48s-3.99 3.74-6.91 4.89-6.24 1.72-9.97 1.72c-6.17 0-10.99-1.26-14.47-3.78s-5.42-5.85-5.82-9.99h14.4c.19 1.28.83 2.26 1.91 2.96 1.08.69 2.44 1.04 4.09 1.04 1.33 0 2.43-.23 3.3-.68.87-.46 1.31-1.1 1.33-1.94-.05-1.4-1.59-2.38-4.62-2.94l-7.15-1.26c-8.25-1.45-12.35-5.41-12.3-11.88-.02-4.2 1.64-7.45 4.97-9.72 3.33-2.28 7.87-3.42 13.64-3.42s10.44 1.21 13.81 3.63 5.15 5.76 5.32 10.04z"/><path d="m564.5 226.91v-40.36h14.51v40.36zm7.25-44.57c-1.96 0-3.64-.65-5.04-1.94-1.4-1.3-2.1-2.86-2.1-4.68s.7-3.38 2.1-4.68 3.08-1.94 5.04-1.94 3.67.65 5.06 1.94 2.09 2.86 2.09 4.68-.7 3.38-2.09 4.68-3.08 1.94-5.06 1.94z"/><path d="m606.55 227.64c-4.38 0-8.13-.87-11.25-2.61s-5.51-4.18-7.17-7.31c-1.67-3.13-2.5-6.76-2.5-10.89s.83-7.77 2.5-10.89c1.66-3.13 4.06-5.56 7.17-7.31s6.87-2.61 11.25-2.61 8.13.87 11.25 2.61 5.51 4.18 7.17 7.31 2.5 6.76 2.5 10.89-.83 7.77-2.5 10.89c-1.66 3.13-4.06 5.56-7.17 7.31s-6.87 2.61-11.25 2.61zm.1-10.72c1.84 0 3.3-.91 4.38-2.72s1.62-4.31 1.62-7.48-.54-5.66-1.62-7.48c-1.08-1.81-2.54-2.72-4.38-2.72-1.95 0-3.46.91-4.56 2.72-1.09 1.81-1.64 4.31-1.64 7.48s.55 5.66 1.64 7.48c1.09 1.81 2.61 2.72 4.56 2.72z"/><path d="m648.6 204.2v22.7h-14.51v-40.36h13.77v7.67h.42c.88-2.56 2.42-4.56 4.64-6.02 2.22-1.45 4.8-2.18 7.76-2.18s5.34.65 7.45 1.96 3.75 3.1 4.91 5.37c1.17 2.28 1.74 4.88 1.72 7.8v25.75h-14.51v-22.7c.02-2-.49-3.56-1.51-4.7s-2.45-1.71-4.27-1.71-3.23.57-4.28 1.71-1.59 2.71-1.6 4.7z"/></g><path d="m2139.31 1399.55-457.61 457.61c-38.24 38.25-100.26 38.25-138.51 0l-457.61-457.61c-38.25-38.25-38.25-100.27 0-138.52l457.61-457.6c38.25-38.25 100.27-38.25 138.51 0l457.61 457.6c38.25 38.25 38.25 100.27 0 138.52" fill="#40c287"/></svg>