<svg width="12" height="10" viewBox="0 0 12 10" fill="none" xmlns="http://www.w3.org/2000/svg">
<path d="M6.95783 9.19715C6.8012 9.02847 6.71988 8.82667 6.71386 8.59173C6.70783 8.35679 6.78313 8.161 6.93976 8.00438L9.10843 5.85377H0.849398C0.608434 5.85377 0.406627 5.77245 0.243976 5.6098C0.0813254 5.44715 0 5.24534 0 5.00438C0 4.76341 0.0813254 4.56161 0.243976 4.39896C0.406627 4.2363 0.608434 4.15498 0.849398 4.15498H9.10843L6.92169 1.96823C6.76506 1.81161 6.68976 1.61883 6.69578 1.38992C6.70181 1.161 6.78313 0.962208 6.93976 0.793533C7.10843 0.636907 7.31024 0.558594 7.54518 0.558594C7.78012 0.558594 7.9759 0.636907 8.13253 0.793533L11.7289 4.40799C11.8133 4.49233 11.8795 4.5857 11.9277 4.68811C11.9759 4.79052 12 4.89594 12 5.00438C12 5.11281 11.9759 5.21823 11.9277 5.32064C11.8795 5.42305 11.8133 5.51642 11.7289 5.60076L8.1506 9.19715C7.98193 9.36582 7.78313 9.44715 7.55422 9.44112C7.3253 9.4351 7.12651 9.35377 6.95783 9.19715Z" fill="white"/>
</svg>
