<svg height="531pt" preserveAspectRatio="xMidYMid meet" viewBox="0 0 2100 531" width="2100pt" xmlns="http://www.w3.org/2000/svg"><g transform="matrix(.1 0 0 -.1 0 531)"><path d="m2095 5295c-297-39-616-144-870-288-643-363-1073-978-1201-1717-24-140-30-531-11-680 35-268 107-509 221-746 121-251 246-430 436-627 316-328 717-561 1152-667 226-55 311-65 583-65s358 10 583 65c340 83 695 263 961 484 111 93 295 286 381 401 232 308 387 668 449 1037 161 952-239 1884-1038 2419-312 209-659 337-1041 385-140 17-466 17-605-1zm-49-1787c192-637 354-1158 359-1158 6 0 167 521 359 1158 192 636 352 1163 355 1170 6 10 216-670 907-2936l13-42h-80c-55 0-81 4-84 13-2 6-22 82-45 167-107 397-252 700-399 831-31 28-90 67-130 87-74 36-77 37-195 37-119 0-122-1-186-35-79-42-198-158-262-255-57-87-150-260-209-387-39-85-45-94-53-75-42 99-174 356-215 417-101 152-206 256-311 308-50 24-65 27-165 26-128 0-179-16-282-90-186-133-338-452-483-1011l-11-43h-80c-61 0-80 3-77 13 3 6 209 682 458 1500 250 818 457 1482 460 1475 4-7 164-534 356-1170z"/><path d="m11220 3577c0-584 4-954 11-1007 21-175 98-336 222-466 156-165 337-245 590-260l107-7v206 207h-68c-126 0-230 39-314 118-59 55-94 111-119 193-17 56-19 98-19 530v469h255 255v205 205h-255-255v265 265h-205-205z"/><path d="m18220 3185v-1315h205 205v1315 1315h-205-205z"/><path d="m6365 3959c-266-39-509-221-623-469-79-170-76-131-80-917l-3-703h206 205v675c0 653 1 678 20 736 102 303 464 396 693 180 30-28 66-74 82-102 55-102 55-99 55-821v-668h205 205v678c0 759-2 731 72 842 115 172 339 237 523 151 77-36 162-112 198-179 57-104 57-108 57-829v-663h200 201l-3 718-3 717-24 70c-107 318-362 539-676 585-255 36-515-46-701-222l-54-51-65 61c-181 170-436 248-690 211z"/><path d="m9755 3959c-544-78-941-560-912-1103 15-271 123-515 311-702 96-96 176-151 300-209 551-257 1207-1 1436 562 86 213 100 462 39 684-25 91-92 235-149 320-56 82-187 213-269 268-225 152-499 217-756 180zm348-428c112-40 180-83 267-171 134-133 190-268 190-455 0-111-18-184-72-295-82-169-254-302-445-344-284-63-586 82-718 344-55 109-69 171-69 300 0 100 4 126 28 195 77 224 249 383 475 440 81 21 268 13 344-14z"/><path d="m13200 3959c-100-13-231-54-329-103-395-199-618-602-579-1049 37-434 338-799 762-921 442-128 925 48 1179 431 210 316 235 728 64 1068-98 196-281 377-484 479-171 85-406 122-613 95zm358-434c40-14 90-36 110-48 208-119 334-334 334-572 0-182-59-323-192-456-70-70-102-94-172-128-235-114-482-88-695 73-114 87-206 236-237 388-19 94-20 139-1 242 44 248 242 457 494 521 91 24 268 14 359-20z"/><path d="m15347 3954c-329-59-594-318-661-646-14-66-16-176-16-758v-680h200 200v633c0 390 4 657 11 696 25 159 135 289 287 340 50 17 86 21 192 21h130v205 205l-132-1c-73 0-168-7-211-15z"/><path d="m16750 3960c-274-39-534-191-701-413-350-463-260-1135 199-1482 418-316 998-288 1376 66 131 122 222 265 280 439 106 320 57 668-135 945-68 99-215 237-318 299-93 56-227 109-333 132-89 19-280 26-368 14zm304-420c123-31 209-81 306-179 86-87 125-149 165-266 26-74 32-253 11-335-62-249-261-442-510-496-281-60-582 87-711 349-58 116-79 213-72 327 18 291 223 536 506 605 84 20 215 18 305-5z"/><path d="m19840 3965c-8-2-49-9-90-15-316-52-607-267-753-555-234-465-112-1017 295-1332 362-279 883-291 1258-29l65 46 3-105 3-105h190 190l-3 613c-3 592-4 615-25 689-88 311-280 547-558 684-147 72-272 103-435 109-69 2-132 2-140 0zm308-438c259-91 432-318 449-587 9-149-40-306-137-434-113-150-324-255-513-256-241-1-481 147-585 360-54 110-72 184-72 295 0 187 56 322 190 456 96 96 181 147 302 179 105 29 265 23 366-13z"/><path d="m5855 628c-103-227-189-419-192-425-4-10 10-13 50-13h54l49 110 49 110h221 220l49-110 50-110h57 58l-26 58c-14 31-100 222-192 425l-167 367h-46-46zm298 142c30-69 69-155 86-192l30-68h-179-179l79 174c84 188 100 220 105 214 1-1 27-59 58-128z"/><path d="m11550 1026c-212-61-343-267-309-486 35-230 252-392 480-360 76 11 191 66 237 112l32 34-34 33-35 34-38-33c-136-120-333-114-451 14-162 176-112 435 103 537 108 52 240 33 335-48l43-37 34 38 35 38-29 30c-15 16-61 46-102 66-66 33-82 36-165 39-53 1-110-3-136-11z"/><path d="m6930 610v-420h285 285v45 45h-235-235v375 375h-50-50z"/><path d="m14130 817c-58-16-113-50-139-85l-20-27-1 53v52h-50-50v-405-405h50 50v141 141l37-32c61-54 116-73 192-68 119 9 215 78 267 191 24 53 26 68 22 145-3 72-9 96-33 141-67 122-208 190-325 158zm128-103c49-20 90-60 113-109 25-54 25-156 0-211-35-78-138-135-212-119-178 39-248 242-132 382 53 64 155 89 231 57z"/><path d="m7767 806c-118-42-197-146-213-278-11-95 34-211 108-273 100-85 236-103 350-47 35 17 75 43 88 57l24 26-31 30-30 31-46-35c-59-45-135-63-200-46-77 19-157 105-157 168 0 21 3 21 241 21h242l-5 73c-8 126-64 216-163 263-58 27-147 31-208 10zm184-100c36-24 70-81 83-138l6-28h-194-194l8 36c22 95 122 171 210 160 24-4 61-17 81-30z"/><path d="m8450 804c-19-8-50-29-67-46l-33-32v42 42h-50-50v-310-310h50 50v203c0 228 4 246 73 301 34 27 47 31 102 31 69 0 99-15 139-69 19-25 21-43 24-247l3-219h50 49v233c0 204-3 237-19 272-23 49-64 89-113 109-48 20-162 20-208 0z"/><path d="m9094 799c-71-27-137-88-171-157-25-50-28-68-28-147 1-78 5-97 28-142 77-149 242-214 404-159 69 23 145 92 180 164 24 49 28 68 27 142 0 103-24 161-94 231-85 85-229 113-346 68zm217-92c143-76 167-278 45-384-160-141-401 15-356 230 13 63 61 126 119 157 52 28 136 26 192-3z"/><path d="m10420 811c-93-30-165-95-206-184-24-53-26-68-22-145 3-72 9-96 33-140 99-182 348-223 506-84 102 89 133 267 69 392-26 51-93 115-148 141-50 25-184 36-232 20zm187-106c80-40 123-114 123-211 0-127-94-224-217-224-63 1-119 27-165 78-104 116-60 314 82 371 47 19 123 13 177-14z"/><path d="m12234 799c-71-27-137-88-171-157-24-50-28-68-28-147 0-74 5-99 24-137 73-150 246-219 408-164 69 23 145 92 180 164 24 49 28 68 27 142 0 103-24 161-94 231-85 85-229 113-346 68zm217-92c139-74 166-271 52-379-102-98-277-66-342 61-62 120-17 261 104 324 46 25 133 21 186-6z"/><path d="m12963 790c-29-16-56-38-62-47-8-14-10-9-11 25v42h-50-50v-310-310h50 50v207c0 202 1 207 25 249 45 77 149 106 215 61 69-46 75-67 78-304l4-213h49 49v210c0 235 3 248 67 297 47 36 135 40 180 7 58-42 63-68 63-301v-213h56 56l-4 228c-3 226-3 227-31 285-41 82-86 111-184 116-90 4-145-14-196-66l-36-35-34 36c-45 47-93 66-169 66-51 0-73-6-115-30z"/><path d="m14761 810c-69-11-141-38-141-54 0-12 20-76 23-76 1 0 26 9 54 20 108 41 206 36 262-14 27-24 51-75 51-110 0-23-1-24-42-14-60 14-205 14-254 0-102-29-158-104-152-204 3-46 11-66 34-95 47-59 103-83 196-83 84 0 130 14 185 56l33 25v-35-36h51 51l-4 233c-3 218-4 235-25 274-50 94-172 136-322 113zm179-324 65-11 3-49c6-94-79-169-193-169-67 0-114 26-139 76-16 34-17 42-5 74 31 81 117 106 269 79z"/><path d="m15450 804c-19-8-50-29-67-46l-33-32v42 42h-50-50v-310-310h50 50v200c0 224 4 246 63 297 80 70 193 54 255-37 21-32 22-42 22-246v-214h50 50v233c0 204-3 237-19 272-23 49-64 89-113 109-48 20-162 20-208 0z"/><path d="m9554 793c4-10 64-152 134-316l127-298 45 3 44 3 133 305c73 168 133 308 133 313 0 4-24 7-52 7h-53l-99-240c-54-132-102-240-106-240s-37 75-74 168c-38 92-81 200-98 240l-30 72h-55c-48 0-54-2-49-17z"/><path d="m15854 793c3-10 66-148 140-308l133-290-18-37c-33-65-90-88-158-64l-43 14-14-34c-8-18-14-38-14-43 0-29 169-43 218-17 29 16 70 57 94 96 16 27 288 681 288 693 0 5-25 7-56 5l-56-3-59-155c-33-85-76-197-96-248l-36-93-108 248-108 248-56 3c-51 3-56 1-51-15z"/></g></svg>