<svg width="48" height="35" viewBox="0 0 48 35" fill="none" xmlns="http://www.w3.org/2000/svg">
<path d="M18.5946 0L19.027 1.44144C16.048 2.59459 13.6937 4.22823 11.964 6.34235C10.2342 8.45646 9.36937 10.6186 9.36937 12.8288C9.36937 13.6937 9.56156 14.3183 9.94595 14.7027C10.4264 15.0871 11.1952 15.3754 12.2523 15.5676C15.1351 16.0481 17.3453 17.1051 18.8829 18.7387C20.4204 20.2763 21.1892 22.2462 21.1892 24.6486C21.1892 27.3393 20.2282 29.5976 18.3063 31.4234C16.4805 33.1532 14.1742 34.018 11.3874 34.018C8.02402 34.018 5.28528 32.9129 3.17117 30.7027C1.05706 28.3964 0 25.4174 0 21.7658C0 18.4024 0.768769 15.2793 2.30631 12.3964C3.93994 9.41742 6.15015 6.87087 8.93694 4.75676C11.7237 2.54655 14.9429 0.96096 18.5946 0ZM45.4054 0L45.8378 1.44144C42.8589 2.59459 40.5045 4.22823 38.7748 6.34235C37.045 8.45646 36.1802 10.6186 36.1802 12.8288C36.1802 13.6937 36.3724 14.3183 36.7568 14.7027C37.2372 15.0871 38.006 15.3754 39.0631 15.5676C41.9459 16.0481 44.1562 17.1051 45.6937 18.7387C47.2312 20.2763 48 22.2462 48 24.6486C48 27.3393 47.039 29.5976 45.1171 31.4234C43.2913 33.1532 40.985 34.018 38.1982 34.018C34.8348 34.018 32.0961 32.9129 29.982 30.7027C27.8679 28.3964 26.8108 25.4174 26.8108 21.7658C26.8108 18.4024 27.5796 15.2793 29.1171 12.3964C30.7508 9.41742 32.961 6.87087 35.7477 4.75676C38.5345 2.54655 41.7538 0.96096 45.4054 0Z" fill="#003C3C" fill-opacity="0.2"/>
</svg>
